<?xml version="1.0" standalone="no"?><!DOCTYPE svg PUBLIC "-//W3C//DTD SVG 1.1//EN" "http://www.w3.org/Graphics/SVG/1.1/DTD/svg11.dtd"><svg t="1639468664741" class="icon" viewBox="0 0 1024 1024" version="1.1" xmlns="http://www.w3.org/2000/svg" p-id="3650" xmlns:xlink="http://www.w3.org/1999/xlink" width="32" height="32"><defs><style type="text/css"></style></defs><path d="M418.78110815 572.77992033c20.86229333-0.0121363 41.71245037-0.02427259 62.5747437 0-0.03640889 109.59075555 0 219.18151111-0.0242726 328.76013037-36.70016 0.13349925-73.40032 0.02427259-110.10048 0.06068148-11.79648-0.3155437-23.78714075 1.03158518-35.40157628-1.68694518-24.5881363-5.01229037-46.13006222-20.41325037-61.38538667-40.0133689-11.65084445-14.4300563-18.37435259-32.29468445-21.71183408-50.38990222-3.33748148-18.89621333-2.94912-38.37496889 0.16990815-57.25904592 6.01960297-20.77733925 16.83304297-40.38959408 32.24613926-55.68132741 12.87661037-12.86447408 28.92079408-22.46428445 46.27569778-27.90134518 6.99050667-2.14812445 14.21160297-3.99284148 21.57833481-3.93216 21.91815111 0.04854518 43.84843852 0.0121363 65.77872593 0.01213629 0.03640889-30.65628445 0.02427259-61.31256889 0-91.96885333m-69.4924326 148.99730963c-12.64602075 5.82542222-24.46677333 15.07328-30.4863763 27.91348147-4.17488592 11.25034667-6.22592 23.28955259-6.5050548 35.28021334-0.08495408 14.56355555 4.30838518 29.23633778 12.58533925 41.23913481 9.74544592 14.00528592 26.66344297 23.04682667 43.82416593 22.31864889 16.74808889-0.04854518 33.48404148 0.0121363 50.21999407-0.02427259 0.03640889-43.54503111 0.03640889-87.09006222 0-130.63509333-18.73844148-0.04854518-37.47688297 0.02427259-56.20318815-0.04854518-4.78170075-0.09709037-9.12649482 2.19666963-13.43488 3.95643259zM515.11902815 669.61542847c20.77733925-0.0121363 41.56681482-0.0121363 62.35629037 0 0.06068148 51.02098963-0.0121363 102.04197925 0.03640889 153.0629689 0.0121363 6.45650963 1.85685333 13.15574518 6.26232889 18.03453629 4.81810963 5.36424297 12.17270518 7.79150222 19.24816592 7.80363852 21.9666963 0 43.94552889 0 65.91222519-0.0121363 0.02427259-59.60135111 0.04854518-119.20270222-0.0121363-178.79191703 20.80161185-0.21845333 41.61536-0.08495408 62.42910814-0.07281778-0.0121363 77.33248 0 154.6528237-0.01213628 231.9731674-50.4505837 0.13349925-100.90116741 0.04854518-151.35175112 0.04854519-16.00777482-1.44421925-32.06409482-7.20896-44.17611852-18.0102637-13.61692445-12.20911408-21.49338075-30.64414815-20.71665778-48.93354666 0.03640889-55.02596741-0.0121363-110.06407111 0.0242726-165.10217483z" fill="#FCFBFF" p-id="3651"></path><path d="M391.21957925 29.66852477c19.15107555-3.2889363 39.15169185 1.79617185 55.24442075 12.4397037 25.10999703 16.50536297 41.68817778 43.32657778 51.20303408 71.34928593 14.57569185 43.8969837 13.72615111 92.95189333-2.93698371 136.15710815-8.41045333 21.21424592-20.9593837 41.23913482-38.54487704 56.0454163-14.19946667 12.02706963-32.19759408 20.17052445-50.99671703 20.57102222-18.61707852 0.6432237-36.87006815-6.40796445-51.53071408-17.63403852-23.37450667-18.04667259-38.64196741-44.79506963-47.1980563-72.70855112-12.47611259-41.63963259-11.33530075-87.42987852 3.89575111-128.19569777 9.28426667-24.34541037 24.05413925-47.31941925 45.35333927-62.79319703 10.51003259-7.62159408 22.67060148-13.1072 35.51080295-15.23105186zM671.58016 51.45317663c13.47128889-2.90057482 27.28239408 0.80099555 39.41869037 6.67496295 17.20926815 8.31336297 31.82136889 21.32347259 43.62998518 36.23898075 16.46895408 21.00792889 27.90134518 46.22715259 31.38446223 72.78136889 2.68212148 18.47144297-0.30340741 37.20988445-5.47346963 54.98955851-6.20164741 21.44483555-15.61941333 42.05226667-28.38679704 60.40234667-11.18966518 15.98350222-25.13426963 30.38928592-42.11294814 40.24395852-15.70436741 9.15076741-34.10299259 13.83537778-52.29530075 12.60961185-22.23369482-1.45635555-44.73438815-9.09008592-61.14266074-24.576-16.54177185-15.34027852-25.91099259-36.91861333-30.21937778-58.73967407-4.56324741-23.18032592-4.42974815-47.07669333-1.68694518-70.4633363 2.99766518-20.71665778 11.74793482-40.15900445 22.36719407-58.03576889 11.21393778-18.50785185 25.00077037-35.60789333 41.56681482-49.61317926 12.45184-10.43721482 26.84548741-19.27243852 42.95035259-22.51282962zM167.88745482 250.54911737c20.34043259-3.73797925 41.70031408 0.53399703 59.69844148 10.51003259 26.57848889 14.66064592 47.1737837 38.79973925 60.43875555 65.8515437 5.36424297 11.20180148 9.4905837 23.14391703 10.61925926 35.58362074 3.31320889 31.16600889 2.65784889 63.27864889-6.32301036 93.51016297-6.08028445 20.53461333-16.85731555 40.11045925-33.09568 54.33419851-20.07343408 17.81608297-47.1980563 26.45712592-73.7644089 26.82121482-22.22155852 0.32768-44.28534518-7.92500148-60.99702518-22.53710223-22.07592297-19.12680297-35.78993778-46.31210667-42.98676149-74.27413333-4.72101925-18.98116741-6.91768889-38.90896592-3.79866073-58.32704 4.55111111-32.4524563 14.05383111-64.98986667 32.7315911-92.26012444 13.39847111-19.56370963 33.70249482-35.23166815 57.47749927-39.21237333zM822.10664297 322.25035588c24.2361837-3.02193778 49.80736 0.27913482 71.38569481 12.19697778 19.93993482 10.8255763 35.57148445 28.48388741 46.04510814 48.44809481 8.67745185 16.65099852 14.67278222 34.90398815 16.26263705 53.66670223 0.87381333 26.79694222 1.31072 53.93370075-4.33265779 80.2937363-3.93216 18.42289778-10.8013037 36.63947852-22.70701036 51.44576-11.22607408 14.21160297-27.24598518 24.36968297-44.69797927 29.01788443-17.53694815 4.84238222-35.98411852 4.96374518-53.99438222 3.48311704-21.40842667-2.01462518-43.16880592-8.05850075-60.24457481-21.6147437-15.01259852-11.69938963-25.14640592-28.72661333-30.63201185-46.78542222-7.45168592-24.2361837-8.16772741-49.89231408-7.73082075-75.0508563 0.76458667-26.34789925 4.45402075-53.0720237 15.01259853-77.40529778 7.86432-18.19230815 20.53461333-34.77048889 37.74388147-44.97711407 11.4566637-7.07546075 24.60027259-10.99548445 37.88951705-12.71883852zM496.72040297 419.28004477c24.46677333-2.92484741 49.64958815 1.40781037 71.90755555 11.94211556 34.56417185 16.23836445 61.2882963 45.31693037 81.67727407 77.0169363 25.40126815 36.63947852 55.15946667 70.06283852 86.36188444 101.83566222 29.67324445 29.87956148 60.70575408 58.43626667 93.17034667 85.26961778 5.41278815 4.62392889 11.23821037 8.78667852 16.17768297 13.94460444 24.55172741 25.09786075 39.60073482 58.94599111 42.78044444 93.82570666 3.53166222 36.96715852-5.36424297 74.11636148-20.32829629 107.75817482-11.23821037 24.70949925-30.59560297 45.58392889-54.55265185 58.38772148-33.13208889 17.91317333-71.76192 22.20942222-108.87471408 20.86229334-36.10548148-1.49276445-71.94396445-8.11918222-106.38677334-19.00544-41.85808592-11.33530075-85.96138667-14.55141925-129.03310222-9.39349334-20.07343408 2.22094222-39.54005333 7.82791111-59.46785185 10.91053037-44.9042963 7.36673185-90.64599703 9.85467259-136.07215407 6.8691437-37.73174518-1.14081185-74.10422518-20.20693333-97.62436741-49.56463407-14.55141925-17.88890075-24.68522667-39.01819259-31.38446222-60.98488889-6.26232889-20.47393185-10.09739852-41.91876741-9.04154075-63.38787556 1.03158518-25.34058667 8.55608889-50.21999408 20.82588445-72.36873481 18.25298963-33.25345185 45.8873363-60.2809837 75.77903407-83.15790222 8.51968-6.80846222 18.0224-12.53679408 25.2677689-20.78947555 14.09024-13.05865482 28.94506667-25.26776889 42.79258073-38.58128593 26.10517333-24.69736297 50.19572148-51.72489482 69.89293037-81.85931852 5.65551408-8.49540741 10.42507852-17.58549333 16.71168-25.65613037 26.29935408-34.29717333 66.15495111-59.01880889 109.42084742-63.87332741m-77.93929482 153.49987556c0.02427259 30.65628445 0.03640889 61.31256889 0 91.96885333-21.93028741 0-43.86057482 0.03640889-65.77872593-0.01213629-7.36673185-0.06068148-14.58782815 1.78403555-21.57833481 3.93216-17.3549037 5.43706075-33.39908741 15.03687111-46.27569778 27.90134518-15.4130963 15.29173333-26.2265363 34.90398815-32.24613926 55.68132741-3.11902815 18.88407703-3.50738963 38.36283259-0.16990815 57.25904592 3.33748148 18.09521778 10.06098963 35.95984592 21.71183408 50.38990222 15.25532445 19.60011852 36.79725037 35.00107852 61.38538667 40.0133689 11.61443555 2.71853037 23.6050963 1.37140148 35.40157628 1.68694518 36.70016-0.03640889 73.40032 0.07281778 110.10048-0.06068148 0.02427259-109.57861925-0.0121363-219.16937482 0.0242726-328.76013037-20.86229333-0.02427259-41.71245037-0.0121363-62.5747437 0m96.33792 96.83550814c-0.03640889 55.0381037 0.0121363 110.07620741-0.0242726 165.10217483-0.77672297 18.28939852 7.09973333 36.72443259 20.71665778 48.93354666 12.1120237 10.8013037 28.1683437 16.56604445 44.17611852 18.0102637 50.4505837 0 100.90116741 0.08495408 151.35175112-0.04854519 0.0121363-77.3203437 0-154.64068741 0.01213628-231.9731674-20.81374815-0.0121363-41.6274963-0.14563555-62.42910814 0.07281778 0.06068148 59.58921482 0.03640889 119.19056592 0.0121363 178.79191703-21.9666963 0.0121363-43.94552889 0.0121363-65.91222519 0.0121363-7.07546075-0.0121363-14.4300563-2.43939555-19.24816592-7.80363852-4.40547555-4.87879111-6.25019259-11.57802667-6.26232889-18.03453629-0.04854518-51.02098963 0.02427259-102.04197925-0.03640889-153.0629689-20.78947555-0.0121363-41.57895111-0.0121363-62.35629037 0z" fill="#306CFF" p-id="3652"></path><path d="M349.28867555 721.77722996c4.30838518-1.75976297 8.65317925-4.05352297 13.43488-3.95643259 18.72630518 0.07281778 37.46474667 0 56.20318815 0.04854518 0.03640889 43.54503111 0.03640889 87.09006222 0 130.63509333-16.73595259 0.03640889-33.47190518-0.02427259-50.21999407 0.02427259-17.16072297 0.72817778-34.07872-8.31336297-43.82416593-22.31864889-8.27695408-12.00279703-12.67029333-26.67557925-12.58533925-41.23913481 0.27913482-11.99066075 2.33016889-24.02986667 6.5050548-35.28021334 6.01960297-12.84020148 17.84035555-22.08805925 30.4863763-27.91348147z" fill="#306CFF" p-id="3653"></path></svg>