<svg width="100" height="100" viewBox="0 0 100 100" fill="none" xmlns="http://www.w3.org/2000/svg">
<path d="M23.2739 83.9026C24.8696 84.9049 27.8614 87.6111 34.3437 84.6042C37.8342 82.6999 40.128 81.2967 41.3247 80.3947L40.826 80.6953L40.9258 54.3354L40.7263 17.9527C40.7263 17.9527 40.0282 12.7409 36.1388 10.2352C31.8505 6.82742 24.8696 2.01648 23.972 1.7158C23.1742 1.0142 20.1824 -0.0883057 18.2875 3.62013L18.3873 76.6862C18.3873 76.6862 18.487 77.4881 18.6864 78.791C19.8832 80.6953 21.4788 82.9004 23.2739 83.9026Z" fill="url(#paint0_linear_102_2)"/>
<path d="M70.2458 62.7546L41.3247 80.2944C40.0282 81.1965 37.8342 82.5997 34.244 84.504C27.8614 87.5109 24.8696 84.8047 23.1742 83.8024C21.3791 82.8001 19.7835 80.5951 18.5867 78.5906C19.1851 81.397 20.5813 86.4083 24.1715 89.9163C28.759 94.627 34.3437 100.741 49.4027 98.5359C52.7934 97.5336 56.4833 95.5291 63.0654 91.1191C68.0518 87.8115 73.1379 86.1077 77.3265 80.2944C82.0137 67.3651 72.739 63.5564 70.2458 62.7546Z" fill="url(#paint1_linear_102_2)"/>
<path d="M80.8169 54.0347C77.6256 47.9208 77.127 45.3149 67.1542 39.5017C56.9819 34.2898 55.486 33.488 55.486 33.488C55.486 33.488 52.9928 31.3832 50.5993 31.5837C48.3056 32.586 46.8097 33.9891 48.5051 38.3992C50.7988 44.7135 53.4915 51.6293 53.4915 51.6293C53.4915 51.6293 54.4887 56.7409 58.5776 58.4447C65.6583 60.75 70.2457 62.6543 70.2457 62.6543L70.146 62.7545C72.6392 63.5564 81.9139 67.2648 77.3264 80.3946C78.8223 78.3901 80.1188 75.7842 81.3155 72.5769C82.8115 66.9641 83.5096 64.1577 80.8169 54.0347Z" fill="url(#paint2_linear_102_2)"/>
<defs>
<linearGradient id="paint0_linear_102_2" x1="10.1209" y1="6.26564" x2="45.1332" y2="79.3835" gradientUnits="userSpaceOnUse">
<stop stop-color="#3BBDF5"/>
<stop offset="1" stop-color="#1B45D9"/>
</linearGradient>
<linearGradient id="paint1_linear_102_2" x1="18.7266" y1="80.9445" x2="78.701" y2="80.9445" gradientUnits="userSpaceOnUse">
<stop stop-color="#5AD9FE"/>
<stop offset="0.51" stop-color="#43AAE1"/>
<stop offset="1" stop-color="#144AD5"/>
</linearGradient>
<linearGradient id="paint2_linear_102_2" x1="55.3044" y1="46.4248" x2="82.9308" y2="67.615" gradientUnits="userSpaceOnUse">
<stop stop-color="#3DC0FE"/>
<stop offset="1" stop-color="#61DDD5"/>
</linearGradient>
</defs>
</svg>
