<svg xmlns="http://www.w3.org/2000/svg" width="1em" height="1em" viewBox="0 0 24 24"><path fill="currentColor" d="M16.477 3.004c.167.015.24.219.12.338l-8.32 8.32a.75.75 0 0 0-.195.34l-1 3.83a.75.75 0 0 0 .915.915l3.829-1a.751.751 0 0 0 .34-.196l8.438-8.438a.198.198 0 0 1 .339.12a45.723 45.723 0 0 1-.06 10.073c-.223 1.905-1.754 3.4-3.652 3.613a47.468 47.468 0 0 1-10.461 0c-1.899-.213-3.43-1.708-3.653-3.613a45.672 45.672 0 0 1 0-10.611C3.34 4.789 4.871 3.294 6.77 3.082a47.512 47.512 0 0 1 9.707-.078Z"/><path fill="currentColor" d="M17.823 4.237a.25.25 0 0 1 .354 0l1.414 1.415a.25.25 0 0 1 0 .353L11.298 14.3a.253.253 0 0 1-.114.065l-1.914.5a.25.25 0 0 1-.305-.305l.5-1.914a.25.25 0 0 1 .065-.114l8.293-8.294Z"/></svg>