<svg xmlns="http://www.w3.org/2000/svg" width="1em" height="1em" viewBox="0 0 24 24"><path fill="currentColor" d="M12 18Zm-8 1v-1.8q0-.85.438-1.562T5.6 14.55q1.55-.775 3.15-1.162T12 13q.925 0 1.825.113t1.8.362l-1.675 1.7q-.5-.075-.975-.125T12 15q-1.4 0-2.775.338T6.5 16.35q-.225.125-.363.35T6 17.2v.8h6v2H5q-.425 0-.712-.288T4 19Zm10 1v-1.25q0-.4.163-.763t.437-.637l4.925-4.925q.225-.225.5-.325t.55-.1q.3 0 .575.113t.5.337l.925.925q.2.225.313.5t.112.55q0 .275-.1.563t-.325.512l-4.925 4.925q-.275.275-.637.425t-.763.15H15q-.425 0-.712-.288T14 20Zm7.5-5.575l-.925-.925l.925.925Zm-6 5.075h.95l3.025-3.05l-.45-.475l-.475-.45l-3.05 3.025v.95Zm3.525-3.525l-.475-.45l.925.925l-.45-.475ZM12 12q-1.65 0-2.825-1.175T8 8q0-1.65 1.175-2.825T12 4q1.65 0 2.825 1.175T16 8q0 1.65-1.175 2.825T12 12Zm0-2q.825 0 1.413-.587T14 8q0-.825-.587-1.412T12 6q-.825 0-1.412.588T10 8q0 .825.588 1.413T12 10Zm0-2Z"/></svg>