<svg xmlns="http://www.w3.org/2000/svg" width="1em" height="1em" viewBox="0 0 24 24"><path fill="currentColor" d="M7 15q.425 0 .713-.288T8 14v-4q0-.425-.288-.712T7 9q-.425 0-.712.288T6 10v4q0 .425.288.713T7 15m5 0q.425 0 .713-.288T13 14v-4q0-.425-.288-.712T12 9q-.425 0-.712.288T11 10v4q0 .425.288.713T12 15m5 0q.425 0 .713-.288T18 14v-4q0-.425-.288-.712T17 9q-.425 0-.712.288T16 10v4q0 .425.288.713T17 15M4 19q-.825 0-1.412-.587T2 17V7q0-.825.588-1.412T4 5h1V4q0-.425.288-.712T6 3q.425 0 .713.288T7 4v1h4V4q0-.425.288-.712T12 3q.425 0 .713.288T13 4v1h4V4q0-.425.288-.712T18 3q.425 0 .713.288T19 4v1h1q.825 0 1.413.588T22 7v10q0 .825-.587 1.413T20 19h-1v1q0 .425-.288.713T18 21q-.425 0-.712-.288T17 20v-1h-4v1q0 .425-.288.713T12 21q-.425 0-.712-.288T11 20v-1H7v1q0 .425-.288.713T6 21q-.425 0-.712-.288T5 20v-1z"/></svg>