<svg xmlns="http://www.w3.org/2000/svg" width="32" height="32" viewBox="0 0 24 24"><path fill="currentColor" d="M13.5 4A1.5 1.5 0 0 0 12 5.5A1.5 1.5 0 0 0 13.5 7A1.5 1.5 0 0 0 15 5.5A1.5 1.5 0 0 0 13.5 4m-.36 4.77c-1.19.1-4.44 2.69-4.44 2.69c-.2.15-.14.14.02.42c.16.27.14.29.33.16c.2-.13.53-.34 1.08-.68c2.12-1.36.34 1.78-.57 7.07c-.36 2.62 2 1.27 2.61.87c.6-.39 2.21-1.5 2.37-1.61c.22-.15.06-.27-.11-.52c-.12-.17-.24-.05-.24-.05c-.65.43-1.84 1.33-2 .76c-.19-.57 1.03-4.48 1.7-7.17c.11-.64.41-2.04-.75-1.94Z"/></svg>