<?xml version="1.0" standalone="no"?><!DOCTYPE svg PUBLIC "-//W3C//DTD SVG 20010904//EN" "http://www.w3.org/TR/2001/REC-SVG-20010904/DTD/svg10.dtd"><svg version="1.0" xmlns="http://www.w3.org/2000/svg" width="200.000000pt" height="200.000000pt" viewBox="0 0 200.000000 200.000000" preserveAspectRatio="xMidYMid meet"><g transform="translate(0.000000,200.000000) scale(0.100000,-0.100000)" fill="#000000" stroke="none"><path d="M663 1649 c-131 -41 -254 -157 -304 -286 -33 -86 -38 -221 -11 -310 36 -117 97 -200 196 -265 108 -70 153 -78 438 -78 l250 0 29 29 c38 39 40 97 5 138 l-24 28 -239 5 c-270 7 -300 13 -370 74 -149 131 -116 368 62 452 l50 24 463 0 462 0 0 105 0 105 -472 -1 c-442 0 -477 -1 -535 -20z"/><path d="M739 1261 c-38 -39 -40 -97 -5 -138 l24 -28 239 -5 c270 -7 300 -13 370 -74 150 -132 115 -373 -67 -455 -43 -20 -64 -21 -507 -21 l-463 0 0 -105 0 -105 469 0 c443 0 472 1 535 20 133 42 256 156 307 287 33 86 38 221 11 310 -23 74 -81 171 -128 214 -49 45 -126 89 -193 109 -56 18 -93 20 -313 20 l-250 0 -29 -29z"/></g></svg>