<svg id="图层_1" data-name="图层 1" xmlns="http://www.w3.org/2000/svg" viewBox="0 0 566.93 566.93"><defs><style>.cls-1{fill:#040000;}</style></defs><path class="cls-1" d="M99.37,502.4H345.56A156.16,156.16,0,0,0,501.72,346.25h0A156.16,156.16,0,0,0,345.56,190.1h-123A33.54,33.54,0,0,0,189,223.61v1a33.54,33.54,0,0,0,33.54,33.56H344.44c48.51,0,88.77,38.74,89.24,87.25a88.22,88.22,0,0,1-88.12,89s-163.09.37-245.94-.27a34.15,34.15,0,0,0-34.41,34.15h0A34.15,34.15,0,0,0,99.37,502.4Z"/><path class="cls-1" d="M467.56,64.53H221.37A156.15,156.15,0,0,0,65.21,220.68h0A156.15,156.15,0,0,0,221.37,376.83h123a33.54,33.54,0,0,0,33.54-33.51v-1a33.54,33.54,0,0,0-33.54-33.56H222.49c-48.52,0-88.77-38.74-89.24-87.25a88.22,88.22,0,0,1,88.12-89s163.09-.37,245.94.27a34.15,34.15,0,0,0,34.41-34.15h0A34.15,34.15,0,0,0,467.56,64.53Z"/></svg>