<svg width="500" height="500" xmlns="http://www.w3.org/2000/svg"><path fill="none" d="M-1-1h502v502H-1z"/><g><g stroke="#fff" fill="#53c6d1"><path d="M9542.74-1526.957c-131-41-254-157-304-286-33-86-38-221-11-310 36-117 97-200 196-265 108-70 153-78 438-78h250l29 29c38 39 40 97 5 138l-24 28-239 5c-270 7-300 13-370 74-149 131-116 368 62 452l50 24h925v210l-472-1c-442 0-477-1-535-20z" transform="matrix(.32447 0 0 -.32646 -2955.688 -460.365)"/><path d="M9618.74-1914.957c-38-39-40-97-5-138l24-28 239-5c270-7 300-13 370-74 150-132 115-373-67-455-43-20-64-21-507-21h-463v-210h469c443 0 472 1 535 20 133 42 256 156 307 287 33 86 38 221 11 310-23 74-81 171-128 214-49 45-126 89-193 109-56 18-93 20-313 20h-250l-29-29z" transform="matrix(.32447 0 0 -.32646 -2955.688 -460.365)"/></g></g></svg>